M48
; DRILL file {KiCad (5.1.9)-1} date 05/17/21 03:23:27
; FORMAT={-:-/ absolute / metric / decimal}
; #@! TF.CreationDate,2021-05-17T03:23:27-07:00
; #@! TF.GenerationSoftware,Kicad,Pcbnew,(5.1.9)-1
; #@! TF.FileFunction,Plated,1,2,PTH
FMAT,2
METRIC
T1C0.300
T2C0.600
T3C0.850
T4C0.990
T5C1.000
T6C1.300
%
G90
G05
T1
X126.7Y-39.0
X130.2Y-56.4
X136.6Y-66.35
X137.4Y-60.95
X138.6Y-43.7
X142.2Y-47.85
X143.7Y-42.2
X145.4Y-60.95
X146.05Y-42.45
X146.2Y-66.5
X146.75Y-56.4
X149.8Y-53.3
X149.8Y-61.9
X150.0Y-46.85
X152.9Y-55.6
X152.9Y-62.8
T3
X155.838Y-54.775
X155.838Y-59.775
T4
X157.1Y-68.4
X157.1Y-73.4
T5
X153.7Y-39.72
X153.7Y-42.26
X153.7Y-44.8
X156.24Y-39.72
X156.24Y-42.26
X156.24Y-44.8
T6
X154.6Y-67.4
X154.6Y-74.4
T2
X158.188Y-53.775G85X158.887Y-53.775
G05
X158.887Y-60.775G85X158.188Y-60.775
G05
T0
M30
