G04 #@! TF.GenerationSoftware,KiCad,Pcbnew,(5.1.9)-1*
G04 #@! TF.CreationDate,2021-05-17T03:23:03-07:00*
G04 #@! TF.ProjectId,wired-sculpt,77697265-642d-4736-9375-6c70742e6b69,rev?*
G04 #@! TF.SameCoordinates,Original*
G04 #@! TF.FileFunction,Legend,Top*
G04 #@! TF.FilePolarity,Positive*
%FSLAX46Y46*%
G04 Gerber Fmt 4.6, Leading zero omitted, Abs format (unit mm)*
G04 Created by KiCad (PCBNEW (5.1.9)-1) date 2021-05-17 03:23:03*
%MOMM*%
%LPD*%
G01*
G04 APERTURE LIST*
%ADD10C,0.100000*%
%ADD11C,0.120000*%
%ADD12C,0.150000*%
%ADD13C,2.100000*%
%ADD14C,1.750000*%
%ADD15R,0.900000X0.800000*%
%ADD16C,1.700000*%
%ADD17R,1.400000X1.200000*%
%ADD18R,1.500000X0.550000*%
%ADD19R,0.550000X1.500000*%
%ADD20R,0.650000X1.060000*%
%ADD21R,1.900000X1.500000*%
%ADD22C,1.450000*%
%ADD23R,1.350000X0.400000*%
%ADD24O,1.900000X1.200000*%
%ADD25R,1.900000X1.200000*%
%ADD26R,2.000000X0.610000*%
%ADD27R,3.600000X2.680000*%
%ADD28C,5.800000*%
%ADD29C,2.700000*%
G04 APERTURE END LIST*
D10*
X134733333Y-75966666D02*
X134900000Y-76666666D01*
X135033333Y-76166666D01*
X135166666Y-76666666D01*
X135333333Y-75966666D01*
X135600000Y-76666666D02*
X135600000Y-76200000D01*
X135600000Y-75966666D02*
X135566666Y-76000000D01*
X135600000Y-76033333D01*
X135633333Y-76000000D01*
X135600000Y-75966666D01*
X135600000Y-76033333D01*
X135933333Y-76666666D02*
X135933333Y-76200000D01*
X135933333Y-76333333D02*
X135966666Y-76266666D01*
X136000000Y-76233333D01*
X136066666Y-76200000D01*
X136133333Y-76200000D01*
X136633333Y-76633333D02*
X136566666Y-76666666D01*
X136433333Y-76666666D01*
X136366666Y-76633333D01*
X136333333Y-76566666D01*
X136333333Y-76300000D01*
X136366666Y-76233333D01*
X136433333Y-76200000D01*
X136566666Y-76200000D01*
X136633333Y-76233333D01*
X136666666Y-76300000D01*
X136666666Y-76366666D01*
X136333333Y-76433333D01*
X137266666Y-76666666D02*
X137266666Y-75966666D01*
X137266666Y-76633333D02*
X137200000Y-76666666D01*
X137066666Y-76666666D01*
X137000000Y-76633333D01*
X136966666Y-76600000D01*
X136933333Y-76533333D01*
X136933333Y-76333333D01*
X136966666Y-76266666D01*
X137000000Y-76233333D01*
X137066666Y-76200000D01*
X137200000Y-76200000D01*
X137266666Y-76233333D01*
X138100000Y-76633333D02*
X138200000Y-76666666D01*
X138366666Y-76666666D01*
X138433333Y-76633333D01*
X138466666Y-76600000D01*
X138500000Y-76533333D01*
X138500000Y-76466666D01*
X138466666Y-76400000D01*
X138433333Y-76366666D01*
X138366666Y-76333333D01*
X138233333Y-76300000D01*
X138166666Y-76266666D01*
X138133333Y-76233333D01*
X138100000Y-76166666D01*
X138100000Y-76100000D01*
X138133333Y-76033333D01*
X138166666Y-76000000D01*
X138233333Y-75966666D01*
X138400000Y-75966666D01*
X138500000Y-76000000D01*
X139100000Y-76633333D02*
X139033333Y-76666666D01*
X138900000Y-76666666D01*
X138833333Y-76633333D01*
X138800000Y-76600000D01*
X138766666Y-76533333D01*
X138766666Y-76333333D01*
X138800000Y-76266666D01*
X138833333Y-76233333D01*
X138900000Y-76200000D01*
X139033333Y-76200000D01*
X139100000Y-76233333D01*
X139700000Y-76200000D02*
X139700000Y-76666666D01*
X139400000Y-76200000D02*
X139400000Y-76566666D01*
X139433333Y-76633333D01*
X139500000Y-76666666D01*
X139600000Y-76666666D01*
X139666666Y-76633333D01*
X139700000Y-76600000D01*
X140133333Y-76666666D02*
X140066666Y-76633333D01*
X140033333Y-76566666D01*
X140033333Y-75966666D01*
X140400000Y-76200000D02*
X140400000Y-76900000D01*
X140400000Y-76233333D02*
X140466666Y-76200000D01*
X140600000Y-76200000D01*
X140666666Y-76233333D01*
X140700000Y-76266666D01*
X140733333Y-76333333D01*
X140733333Y-76533333D01*
X140700000Y-76600000D01*
X140666666Y-76633333D01*
X140600000Y-76666666D01*
X140466666Y-76666666D01*
X140400000Y-76633333D01*
X140933333Y-76200000D02*
X141200000Y-76200000D01*
X141033333Y-75966666D02*
X141033333Y-76566666D01*
X141066666Y-76633333D01*
X141133333Y-76666666D01*
X141200000Y-76666666D01*
X141966666Y-76666666D02*
X141966666Y-75966666D01*
X142366666Y-76666666D02*
X142066666Y-76266666D01*
X142366666Y-75966666D02*
X141966666Y-76366666D01*
X142666666Y-76666666D02*
X142666666Y-75966666D01*
X142900000Y-76466666D01*
X143133333Y-75966666D01*
X143133333Y-76666666D01*
X143666666Y-75966666D02*
X143666666Y-76466666D01*
X143633333Y-76566666D01*
X143566666Y-76633333D01*
X143466666Y-76666666D01*
X143400000Y-76666666D01*
X143833333Y-76733333D02*
X144366666Y-76733333D01*
X144533333Y-76666666D02*
X144533333Y-76200000D01*
X144533333Y-76266666D02*
X144566666Y-76233333D01*
X144633333Y-76200000D01*
X144733333Y-76200000D01*
X144800000Y-76233333D01*
X144833333Y-76300000D01*
X144833333Y-76666666D01*
X144833333Y-76300000D02*
X144866666Y-76233333D01*
X144933333Y-76200000D01*
X145033333Y-76200000D01*
X145100000Y-76233333D01*
X145133333Y-76300000D01*
X145133333Y-76666666D01*
X145566666Y-76666666D02*
X145500000Y-76633333D01*
X145466666Y-76600000D01*
X145433333Y-76533333D01*
X145433333Y-76333333D01*
X145466666Y-76266666D01*
X145500000Y-76233333D01*
X145566666Y-76200000D01*
X145666666Y-76200000D01*
X145733333Y-76233333D01*
X145766666Y-76266666D01*
X145800000Y-76333333D01*
X145800000Y-76533333D01*
X145766666Y-76600000D01*
X145733333Y-76633333D01*
X145666666Y-76666666D01*
X145566666Y-76666666D01*
X146400000Y-76666666D02*
X146400000Y-75966666D01*
X146400000Y-76633333D02*
X146333333Y-76666666D01*
X146200000Y-76666666D01*
X146133333Y-76633333D01*
X146100000Y-76600000D01*
X146066666Y-76533333D01*
X146066666Y-76333333D01*
X146100000Y-76266666D01*
X146133333Y-76233333D01*
X146200000Y-76200000D01*
X146333333Y-76200000D01*
X146400000Y-76233333D01*
X129833333Y-77350000D02*
X129833333Y-77916666D01*
X129800000Y-77983333D01*
X129766666Y-78016666D01*
X129700000Y-78050000D01*
X129600000Y-78050000D01*
X129533333Y-78016666D01*
X129833333Y-77783333D02*
X129766666Y-77816666D01*
X129633333Y-77816666D01*
X129566666Y-77783333D01*
X129533333Y-77750000D01*
X129500000Y-77683333D01*
X129500000Y-77483333D01*
X129533333Y-77416666D01*
X129566666Y-77383333D01*
X129633333Y-77350000D01*
X129766666Y-77350000D01*
X129833333Y-77383333D01*
X130166666Y-77816666D02*
X130166666Y-77350000D01*
X130166666Y-77116666D02*
X130133333Y-77150000D01*
X130166666Y-77183333D01*
X130200000Y-77150000D01*
X130166666Y-77116666D01*
X130166666Y-77183333D01*
X130400000Y-77350000D02*
X130666666Y-77350000D01*
X130500000Y-77116666D02*
X130500000Y-77716666D01*
X130533333Y-77783333D01*
X130600000Y-77816666D01*
X130666666Y-77816666D01*
X130900000Y-77816666D02*
X130900000Y-77116666D01*
X131200000Y-77816666D02*
X131200000Y-77450000D01*
X131166666Y-77383333D01*
X131100000Y-77350000D01*
X131000000Y-77350000D01*
X130933333Y-77383333D01*
X130900000Y-77416666D01*
X131833333Y-77350000D02*
X131833333Y-77816666D01*
X131533333Y-77350000D02*
X131533333Y-77716666D01*
X131566666Y-77783333D01*
X131633333Y-77816666D01*
X131733333Y-77816666D01*
X131800000Y-77783333D01*
X131833333Y-77750000D01*
X132166666Y-77816666D02*
X132166666Y-77116666D01*
X132166666Y-77383333D02*
X132233333Y-77350000D01*
X132366666Y-77350000D01*
X132433333Y-77383333D01*
X132466666Y-77416666D01*
X132500000Y-77483333D01*
X132500000Y-77683333D01*
X132466666Y-77750000D01*
X132433333Y-77783333D01*
X132366666Y-77816666D01*
X132233333Y-77816666D01*
X132166666Y-77783333D01*
X132800000Y-77750000D02*
X132833333Y-77783333D01*
X132800000Y-77816666D01*
X132766666Y-77783333D01*
X132800000Y-77750000D01*
X132800000Y-77816666D01*
X133433333Y-77783333D02*
X133366666Y-77816666D01*
X133233333Y-77816666D01*
X133166666Y-77783333D01*
X133133333Y-77750000D01*
X133100000Y-77683333D01*
X133100000Y-77483333D01*
X133133333Y-77416666D01*
X133166666Y-77383333D01*
X133233333Y-77350000D01*
X133366666Y-77350000D01*
X133433333Y-77383333D01*
X133833333Y-77816666D02*
X133766666Y-77783333D01*
X133733333Y-77750000D01*
X133700000Y-77683333D01*
X133700000Y-77483333D01*
X133733333Y-77416666D01*
X133766666Y-77383333D01*
X133833333Y-77350000D01*
X133933333Y-77350000D01*
X134000000Y-77383333D01*
X134033333Y-77416666D01*
X134066666Y-77483333D01*
X134066666Y-77683333D01*
X134033333Y-77750000D01*
X134000000Y-77783333D01*
X133933333Y-77816666D01*
X133833333Y-77816666D01*
X134366666Y-77816666D02*
X134366666Y-77350000D01*
X134366666Y-77416666D02*
X134400000Y-77383333D01*
X134466666Y-77350000D01*
X134566666Y-77350000D01*
X134633333Y-77383333D01*
X134666666Y-77450000D01*
X134666666Y-77816666D01*
X134666666Y-77450000D02*
X134700000Y-77383333D01*
X134766666Y-77350000D01*
X134866666Y-77350000D01*
X134933333Y-77383333D01*
X134966666Y-77450000D01*
X134966666Y-77816666D01*
X135800000Y-77083333D02*
X135200000Y-77983333D01*
X136333333Y-77783333D02*
X136266666Y-77816666D01*
X136133333Y-77816666D01*
X136066666Y-77783333D01*
X136033333Y-77750000D01*
X136000000Y-77683333D01*
X136000000Y-77483333D01*
X136033333Y-77416666D01*
X136066666Y-77383333D01*
X136133333Y-77350000D01*
X136266666Y-77350000D01*
X136333333Y-77383333D01*
X136633333Y-77816666D02*
X136633333Y-77116666D01*
X136933333Y-77816666D02*
X136933333Y-77450000D01*
X136900000Y-77383333D01*
X136833333Y-77350000D01*
X136733333Y-77350000D01*
X136666666Y-77383333D01*
X136633333Y-77416666D01*
X137566666Y-77816666D02*
X137566666Y-77450000D01*
X137533333Y-77383333D01*
X137466666Y-77350000D01*
X137333333Y-77350000D01*
X137266666Y-77383333D01*
X137566666Y-77783333D02*
X137500000Y-77816666D01*
X137333333Y-77816666D01*
X137266666Y-77783333D01*
X137233333Y-77716666D01*
X137233333Y-77650000D01*
X137266666Y-77583333D01*
X137333333Y-77550000D01*
X137500000Y-77550000D01*
X137566666Y-77516666D01*
X138200000Y-77816666D02*
X138200000Y-77116666D01*
X138200000Y-77783333D02*
X138133333Y-77816666D01*
X138000000Y-77816666D01*
X137933333Y-77783333D01*
X137900000Y-77750000D01*
X137866666Y-77683333D01*
X137866666Y-77483333D01*
X137900000Y-77416666D01*
X137933333Y-77383333D01*
X138000000Y-77350000D01*
X138133333Y-77350000D01*
X138200000Y-77383333D01*
X138833333Y-77816666D02*
X138833333Y-77450000D01*
X138800000Y-77383333D01*
X138733333Y-77350000D01*
X138600000Y-77350000D01*
X138533333Y-77383333D01*
X138833333Y-77783333D02*
X138766666Y-77816666D01*
X138600000Y-77816666D01*
X138533333Y-77783333D01*
X138500000Y-77716666D01*
X138500000Y-77650000D01*
X138533333Y-77583333D01*
X138600000Y-77550000D01*
X138766666Y-77550000D01*
X138833333Y-77516666D01*
X139466666Y-77350000D02*
X139466666Y-77816666D01*
X139166666Y-77350000D02*
X139166666Y-77716666D01*
X139200000Y-77783333D01*
X139266666Y-77816666D01*
X139366666Y-77816666D01*
X139433333Y-77783333D01*
X139466666Y-77750000D01*
X139766666Y-77783333D02*
X139833333Y-77816666D01*
X139966666Y-77816666D01*
X140033333Y-77783333D01*
X140066666Y-77716666D01*
X140066666Y-77683333D01*
X140033333Y-77616666D01*
X139966666Y-77583333D01*
X139866666Y-77583333D01*
X139800000Y-77550000D01*
X139766666Y-77483333D01*
X139766666Y-77450000D01*
X139800000Y-77383333D01*
X139866666Y-77350000D01*
X139966666Y-77350000D01*
X140033333Y-77383333D01*
X140266666Y-77350000D02*
X140533333Y-77350000D01*
X140366666Y-77116666D02*
X140366666Y-77716666D01*
X140400000Y-77783333D01*
X140466666Y-77816666D01*
X140533333Y-77816666D01*
X140766666Y-77816666D02*
X140766666Y-77350000D01*
X140766666Y-77116666D02*
X140733333Y-77150000D01*
X140766666Y-77183333D01*
X140800000Y-77150000D01*
X140766666Y-77116666D01*
X140766666Y-77183333D01*
X141100000Y-77350000D02*
X141100000Y-77816666D01*
X141100000Y-77416666D02*
X141133333Y-77383333D01*
X141200000Y-77350000D01*
X141300000Y-77350000D01*
X141366666Y-77383333D01*
X141400000Y-77450000D01*
X141400000Y-77816666D01*
X142233333Y-77083333D02*
X141633333Y-77983333D01*
X142400000Y-77350000D02*
X142533333Y-77816666D01*
X142666666Y-77483333D01*
X142800000Y-77816666D01*
X142933333Y-77350000D01*
X143200000Y-77816666D02*
X143200000Y-77350000D01*
X143200000Y-77116666D02*
X143166666Y-77150000D01*
X143200000Y-77183333D01*
X143233333Y-77150000D01*
X143200000Y-77116666D01*
X143200000Y-77183333D01*
X143533333Y-77816666D02*
X143533333Y-77350000D01*
X143533333Y-77483333D02*
X143566666Y-77416666D01*
X143600000Y-77383333D01*
X143666666Y-77350000D01*
X143733333Y-77350000D01*
X144233333Y-77783333D02*
X144166666Y-77816666D01*
X144033333Y-77816666D01*
X143966666Y-77783333D01*
X143933333Y-77716666D01*
X143933333Y-77450000D01*
X143966666Y-77383333D01*
X144033333Y-77350000D01*
X144166666Y-77350000D01*
X144233333Y-77383333D01*
X144266666Y-77450000D01*
X144266666Y-77516666D01*
X143933333Y-77583333D01*
X144866666Y-77816666D02*
X144866666Y-77116666D01*
X144866666Y-77783333D02*
X144800000Y-77816666D01*
X144666666Y-77816666D01*
X144600000Y-77783333D01*
X144566666Y-77750000D01*
X144533333Y-77683333D01*
X144533333Y-77483333D01*
X144566666Y-77416666D01*
X144600000Y-77383333D01*
X144666666Y-77350000D01*
X144800000Y-77350000D01*
X144866666Y-77383333D01*
X145200000Y-77550000D02*
X145733333Y-77550000D01*
X146033333Y-77783333D02*
X146100000Y-77816666D01*
X146233333Y-77816666D01*
X146300000Y-77783333D01*
X146333333Y-77716666D01*
X146333333Y-77683333D01*
X146300000Y-77616666D01*
X146233333Y-77583333D01*
X146133333Y-77583333D01*
X146066666Y-77550000D01*
X146033333Y-77483333D01*
X146033333Y-77450000D01*
X146066666Y-77383333D01*
X146133333Y-77350000D01*
X146233333Y-77350000D01*
X146300000Y-77383333D01*
X146933333Y-77783333D02*
X146866666Y-77816666D01*
X146733333Y-77816666D01*
X146666666Y-77783333D01*
X146633333Y-77750000D01*
X146600000Y-77683333D01*
X146600000Y-77483333D01*
X146633333Y-77416666D01*
X146666666Y-77383333D01*
X146733333Y-77350000D01*
X146866666Y-77350000D01*
X146933333Y-77383333D01*
X147533333Y-77350000D02*
X147533333Y-77816666D01*
X147233333Y-77350000D02*
X147233333Y-77716666D01*
X147266666Y-77783333D01*
X147333333Y-77816666D01*
X147433333Y-77816666D01*
X147500000Y-77783333D01*
X147533333Y-77750000D01*
X147966666Y-77816666D02*
X147900000Y-77783333D01*
X147866666Y-77716666D01*
X147866666Y-77116666D01*
X148233333Y-77350000D02*
X148233333Y-78050000D01*
X148233333Y-77383333D02*
X148300000Y-77350000D01*
X148433333Y-77350000D01*
X148500000Y-77383333D01*
X148533333Y-77416666D01*
X148566666Y-77483333D01*
X148566666Y-77683333D01*
X148533333Y-77750000D01*
X148500000Y-77783333D01*
X148433333Y-77816666D01*
X148300000Y-77816666D01*
X148233333Y-77783333D01*
X148766666Y-77350000D02*
X149033333Y-77350000D01*
X148866666Y-77116666D02*
X148866666Y-77716666D01*
X148900000Y-77783333D01*
X148966666Y-77816666D01*
X149033333Y-77816666D01*
X149266666Y-77550000D02*
X149800000Y-77550000D01*
X150133333Y-77350000D02*
X150133333Y-78050000D01*
X150133333Y-77383333D02*
X150200000Y-77350000D01*
X150333333Y-77350000D01*
X150400000Y-77383333D01*
X150433333Y-77416666D01*
X150466666Y-77483333D01*
X150466666Y-77683333D01*
X150433333Y-77750000D01*
X150400000Y-77783333D01*
X150333333Y-77816666D01*
X150200000Y-77816666D01*
X150133333Y-77783333D01*
X151066666Y-77783333D02*
X151000000Y-77816666D01*
X150866666Y-77816666D01*
X150800000Y-77783333D01*
X150766666Y-77750000D01*
X150733333Y-77683333D01*
X150733333Y-77483333D01*
X150766666Y-77416666D01*
X150800000Y-77383333D01*
X150866666Y-77350000D01*
X151000000Y-77350000D01*
X151066666Y-77383333D01*
X151366666Y-77816666D02*
X151366666Y-77116666D01*
X151366666Y-77383333D02*
X151433333Y-77350000D01*
X151566666Y-77350000D01*
X151633333Y-77383333D01*
X151666666Y-77416666D01*
X151700000Y-77483333D01*
X151700000Y-77683333D01*
X151666666Y-77750000D01*
X151633333Y-77783333D01*
X151566666Y-77816666D01*
X151433333Y-77816666D01*
X151366666Y-77783333D01*
X137200000Y-78333333D02*
X137233333Y-78300000D01*
X137300000Y-78266666D01*
X137466666Y-78266666D01*
X137533333Y-78300000D01*
X137566666Y-78333333D01*
X137600000Y-78400000D01*
X137600000Y-78466666D01*
X137566666Y-78566666D01*
X137166666Y-78966666D01*
X137600000Y-78966666D01*
X138033333Y-78266666D02*
X138100000Y-78266666D01*
X138166666Y-78300000D01*
X138200000Y-78333333D01*
X138233333Y-78400000D01*
X138266666Y-78533333D01*
X138266666Y-78700000D01*
X138233333Y-78833333D01*
X138200000Y-78900000D01*
X138166666Y-78933333D01*
X138100000Y-78966666D01*
X138033333Y-78966666D01*
X137966666Y-78933333D01*
X137933333Y-78900000D01*
X137900000Y-78833333D01*
X137866666Y-78700000D01*
X137866666Y-78533333D01*
X137900000Y-78400000D01*
X137933333Y-78333333D01*
X137966666Y-78300000D01*
X138033333Y-78266666D01*
X138533333Y-78333333D02*
X138566666Y-78300000D01*
X138633333Y-78266666D01*
X138800000Y-78266666D01*
X138866666Y-78300000D01*
X138900000Y-78333333D01*
X138933333Y-78400000D01*
X138933333Y-78466666D01*
X138900000Y-78566666D01*
X138500000Y-78966666D01*
X138933333Y-78966666D01*
X139600000Y-78966666D02*
X139200000Y-78966666D01*
X139400000Y-78966666D02*
X139400000Y-78266666D01*
X139333333Y-78366666D01*
X139266666Y-78433333D01*
X139200000Y-78466666D01*
X139900000Y-78700000D02*
X140433333Y-78700000D01*
X140900000Y-78266666D02*
X140966666Y-78266666D01*
X141033333Y-78300000D01*
X141066666Y-78333333D01*
X141100000Y-78400000D01*
X141133333Y-78533333D01*
X141133333Y-78700000D01*
X141100000Y-78833333D01*
X141066666Y-78900000D01*
X141033333Y-78933333D01*
X140966666Y-78966666D01*
X140900000Y-78966666D01*
X140833333Y-78933333D01*
X140800000Y-78900000D01*
X140766666Y-78833333D01*
X140733333Y-78700000D01*
X140733333Y-78533333D01*
X140766666Y-78400000D01*
X140800000Y-78333333D01*
X140833333Y-78300000D01*
X140900000Y-78266666D01*
X141766666Y-78266666D02*
X141433333Y-78266666D01*
X141400000Y-78600000D01*
X141433333Y-78566666D01*
X141500000Y-78533333D01*
X141666666Y-78533333D01*
X141733333Y-78566666D01*
X141766666Y-78600000D01*
X141800000Y-78666666D01*
X141800000Y-78833333D01*
X141766666Y-78900000D01*
X141733333Y-78933333D01*
X141666666Y-78966666D01*
X141500000Y-78966666D01*
X141433333Y-78933333D01*
X141400000Y-78900000D01*
X142100000Y-78700000D02*
X142633333Y-78700000D01*
X143333333Y-78966666D02*
X142933333Y-78966666D01*
X143133333Y-78966666D02*
X143133333Y-78266666D01*
X143066666Y-78366666D01*
X143000000Y-78433333D01*
X142933333Y-78466666D01*
X143566666Y-78266666D02*
X144033333Y-78266666D01*
X143733333Y-78966666D01*
D11*
G04 #@! TO.C,SW1*
X156130000Y-67560000D02*
X155900000Y-67560000D01*
X159800000Y-67040000D02*
X159800000Y-74760000D01*
X159800000Y-74760000D02*
X155900000Y-74760000D01*
X152790000Y-67040000D02*
X152790000Y-67560000D01*
X159800000Y-67040000D02*
X155900000Y-67040000D01*
X156130000Y-74240000D02*
X155900000Y-74240000D01*
X153300000Y-67560000D02*
X152790000Y-67560000D01*
X153300000Y-67040000D02*
X152790000Y-67040000D01*
X156130000Y-73700000D02*
X156130000Y-74240000D01*
X153300000Y-74240000D02*
X152790000Y-74240000D01*
X152790000Y-74240000D02*
X152790000Y-74760000D01*
X153300000Y-74760000D02*
X152790000Y-74760000D01*
X156130000Y-67560000D02*
X156130000Y-68100000D01*
X156130000Y-69200000D02*
X156130000Y-72600000D01*
G04 #@! TO.C,D1*
X148610000Y-42230000D02*
X147150000Y-42230000D01*
X148610000Y-39070000D02*
X146450000Y-39070000D01*
X148610000Y-39070000D02*
X148610000Y-40000000D01*
X148610000Y-42230000D02*
X148610000Y-41300000D01*
G04 #@! TO.C,Y1*
X138800000Y-42050000D02*
X138800000Y-45350000D01*
X138800000Y-45350000D02*
X142800000Y-45350000D01*
G04 #@! TO.C,R6*
X131162742Y-40777500D02*
X131637258Y-40777500D01*
X131162742Y-41822500D02*
X131637258Y-41822500D01*
G04 #@! TO.C,R5*
X151037258Y-49722500D02*
X150562742Y-49722500D01*
X151037258Y-48677500D02*
X150562742Y-48677500D01*
G04 #@! TO.C,R3*
X149846359Y-57720000D02*
X150153641Y-57720000D01*
X149846359Y-58480000D02*
X150153641Y-58480000D01*
G04 #@! TO.C,R2*
X149846359Y-56720000D02*
X150153641Y-56720000D01*
X149846359Y-57480000D02*
X150153641Y-57480000D01*
G04 #@! TO.C,R1*
X131162742Y-39177500D02*
X131637258Y-39177500D01*
X131162742Y-40222500D02*
X131637258Y-40222500D01*
G04 #@! TO.C,C11*
X149360000Y-43809420D02*
X149360000Y-44090580D01*
X148340000Y-43809420D02*
X148340000Y-44090580D01*
G04 #@! TO.C,C1*
X137110000Y-64840580D02*
X137110000Y-64559420D01*
X136090000Y-64840580D02*
X136090000Y-64559420D01*
D12*
G04 #@! TO.C,U2*
X147375000Y-61575000D02*
X147375000Y-61000000D01*
X133025000Y-61575000D02*
X133025000Y-60900000D01*
X133025000Y-47225000D02*
X133025000Y-47900000D01*
X147375000Y-47225000D02*
X147375000Y-47900000D01*
X147375000Y-61575000D02*
X146700000Y-61575000D01*
X147375000Y-47225000D02*
X146700000Y-47225000D01*
X133025000Y-47225000D02*
X133700000Y-47225000D01*
X133025000Y-61575000D02*
X133700000Y-61575000D01*
X147375000Y-61000000D02*
X148650000Y-61000000D01*
D11*
G04 #@! TO.C,U1*
X151290000Y-56700000D02*
X151290000Y-58500000D01*
X154510000Y-58500000D02*
X154510000Y-56050000D01*
G04 #@! TO.C,R4*
X141122500Y-64937258D02*
X141122500Y-64462742D01*
X140077500Y-64937258D02*
X140077500Y-64462742D01*
G04 #@! TO.C,J1*
X155537500Y-61175000D02*
X155537500Y-60725000D01*
X157387500Y-61175000D02*
X155537500Y-61175000D01*
X159937500Y-53375000D02*
X159687500Y-53375000D01*
X159937500Y-61175000D02*
X159687500Y-61175000D01*
X157387500Y-53375000D02*
X155537500Y-53375000D01*
X155537500Y-53375000D02*
X155537500Y-53825000D01*
X154987500Y-58975000D02*
X154987500Y-58525000D01*
X154987500Y-58975000D02*
X155437500Y-58975000D01*
G04 #@! TO.C,D2*
X149115000Y-48385000D02*
X151600000Y-48385000D01*
X149115000Y-47015000D02*
X149115000Y-48385000D01*
X151600000Y-47015000D02*
X149115000Y-47015000D01*
G04 #@! TO.C,C3*
X138410000Y-43840580D02*
X138410000Y-43559420D01*
X137390000Y-43840580D02*
X137390000Y-43559420D01*
G04 #@! TO.C,C10*
X145760000Y-40990580D02*
X145760000Y-40709420D01*
X144740000Y-40990580D02*
X144740000Y-40709420D01*
G04 #@! TO.C,C9*
X146840000Y-43809420D02*
X146840000Y-44090580D01*
X147860000Y-43809420D02*
X147860000Y-44090580D01*
G04 #@! TO.C,C8*
X143190000Y-43759420D02*
X143190000Y-44040580D01*
X144210000Y-43759420D02*
X144210000Y-44040580D01*
G04 #@! TO.C,C7*
X146710000Y-64840580D02*
X146710000Y-64559420D01*
X145690000Y-64840580D02*
X145690000Y-64559420D01*
G04 #@! TO.C,C6*
X150310000Y-60340580D02*
X150310000Y-60059420D01*
X149290000Y-60340580D02*
X149290000Y-60059420D01*
G04 #@! TO.C,C5*
X150310000Y-55140580D02*
X150310000Y-54859420D01*
X149290000Y-55140580D02*
X149290000Y-54859420D01*
G04 #@! TO.C,C4*
X140940580Y-40690000D02*
X140659420Y-40690000D01*
X140940580Y-41710000D02*
X140659420Y-41710000D01*
G04 #@! TO.C,C2*
X153410000Y-61240580D02*
X153410000Y-60959420D01*
X152390000Y-61240580D02*
X152390000Y-60959420D01*
G04 #@! TO.C,J3*
X127410000Y-68565000D02*
X127410000Y-69390000D01*
X127410000Y-38435000D02*
X129210000Y-38435000D01*
X127410000Y-37610000D02*
X127410000Y-38435000D01*
X122900000Y-35455000D02*
X123440000Y-35455000D01*
X122900000Y-34430000D02*
X122900000Y-35455000D01*
X121790000Y-34430000D02*
X122900000Y-34430000D01*
X121790000Y-72570000D02*
X121790000Y-34430000D01*
X122900000Y-72570000D02*
X121790000Y-72570000D01*
X122900000Y-71545000D02*
X122900000Y-72570000D01*
X123440000Y-71545000D02*
X122900000Y-71545000D01*
G04 #@! TO.C,SW1*
D12*
X152254761Y-72233333D02*
X152302380Y-72090476D01*
X152302380Y-71852380D01*
X152254761Y-71757142D01*
X152207142Y-71709523D01*
X152111904Y-71661904D01*
X152016666Y-71661904D01*
X151921428Y-71709523D01*
X151873809Y-71757142D01*
X151826190Y-71852380D01*
X151778571Y-72042857D01*
X151730952Y-72138095D01*
X151683333Y-72185714D01*
X151588095Y-72233333D01*
X151492857Y-72233333D01*
X151397619Y-72185714D01*
X151350000Y-72138095D01*
X151302380Y-72042857D01*
X151302380Y-71804761D01*
X151350000Y-71661904D01*
X151302380Y-71328571D02*
X152302380Y-71090476D01*
X151588095Y-70900000D01*
X152302380Y-70709523D01*
X151302380Y-70471428D01*
X152302380Y-69566666D02*
X152302380Y-70138095D01*
X152302380Y-69852380D02*
X151302380Y-69852380D01*
X151445238Y-69947619D01*
X151540476Y-70042857D01*
X151588095Y-70138095D01*
G04 #@! TO.C,D1*
X147111904Y-38702380D02*
X147111904Y-37702380D01*
X147350000Y-37702380D01*
X147492857Y-37750000D01*
X147588095Y-37845238D01*
X147635714Y-37940476D01*
X147683333Y-38130952D01*
X147683333Y-38273809D01*
X147635714Y-38464285D01*
X147588095Y-38559523D01*
X147492857Y-38654761D01*
X147350000Y-38702380D01*
X147111904Y-38702380D01*
X148635714Y-38702380D02*
X148064285Y-38702380D01*
X148350000Y-38702380D02*
X148350000Y-37702380D01*
X148254761Y-37845238D01*
X148159523Y-37940476D01*
X148064285Y-37988095D01*
G04 #@! TO.C,Y1*
X140323809Y-39776190D02*
X140323809Y-40252380D01*
X139990476Y-39252380D02*
X140323809Y-39776190D01*
X140657142Y-39252380D01*
X141514285Y-40252380D02*
X140942857Y-40252380D01*
X141228571Y-40252380D02*
X141228571Y-39252380D01*
X141133333Y-39395238D01*
X141038095Y-39490476D01*
X140942857Y-39538095D01*
G04 #@! TO.C,R6*
X133633333Y-41752380D02*
X133300000Y-41276190D01*
X133061904Y-41752380D02*
X133061904Y-40752380D01*
X133442857Y-40752380D01*
X133538095Y-40800000D01*
X133585714Y-40847619D01*
X133633333Y-40942857D01*
X133633333Y-41085714D01*
X133585714Y-41180952D01*
X133538095Y-41228571D01*
X133442857Y-41276190D01*
X133061904Y-41276190D01*
X134490476Y-40752380D02*
X134300000Y-40752380D01*
X134204761Y-40800000D01*
X134157142Y-40847619D01*
X134061904Y-40990476D01*
X134014285Y-41180952D01*
X134014285Y-41561904D01*
X134061904Y-41657142D01*
X134109523Y-41704761D01*
X134204761Y-41752380D01*
X134395238Y-41752380D01*
X134490476Y-41704761D01*
X134538095Y-41657142D01*
X134585714Y-41561904D01*
X134585714Y-41323809D01*
X134538095Y-41228571D01*
X134490476Y-41180952D01*
X134395238Y-41133333D01*
X134204761Y-41133333D01*
X134109523Y-41180952D01*
X134061904Y-41228571D01*
X134014285Y-41323809D01*
G04 #@! TO.C,R5*
X153233333Y-49652380D02*
X152900000Y-49176190D01*
X152661904Y-49652380D02*
X152661904Y-48652380D01*
X153042857Y-48652380D01*
X153138095Y-48700000D01*
X153185714Y-48747619D01*
X153233333Y-48842857D01*
X153233333Y-48985714D01*
X153185714Y-49080952D01*
X153138095Y-49128571D01*
X153042857Y-49176190D01*
X152661904Y-49176190D01*
X154138095Y-48652380D02*
X153661904Y-48652380D01*
X153614285Y-49128571D01*
X153661904Y-49080952D01*
X153757142Y-49033333D01*
X153995238Y-49033333D01*
X154090476Y-49080952D01*
X154138095Y-49128571D01*
X154185714Y-49223809D01*
X154185714Y-49461904D01*
X154138095Y-49557142D01*
X154090476Y-49604761D01*
X153995238Y-49652380D01*
X153757142Y-49652380D01*
X153661904Y-49604761D01*
X153614285Y-49557142D01*
G04 #@! TO.C,R3*
X149733333Y-53352380D02*
X149400000Y-52876190D01*
X149161904Y-53352380D02*
X149161904Y-52352380D01*
X149542857Y-52352380D01*
X149638095Y-52400000D01*
X149685714Y-52447619D01*
X149733333Y-52542857D01*
X149733333Y-52685714D01*
X149685714Y-52780952D01*
X149638095Y-52828571D01*
X149542857Y-52876190D01*
X149161904Y-52876190D01*
X150066666Y-52352380D02*
X150685714Y-52352380D01*
X150352380Y-52733333D01*
X150495238Y-52733333D01*
X150590476Y-52780952D01*
X150638095Y-52828571D01*
X150685714Y-52923809D01*
X150685714Y-53161904D01*
X150638095Y-53257142D01*
X150590476Y-53304761D01*
X150495238Y-53352380D01*
X150209523Y-53352380D01*
X150114285Y-53304761D01*
X150066666Y-53257142D01*
G04 #@! TO.C,R2*
X149733333Y-52052380D02*
X149400000Y-51576190D01*
X149161904Y-52052380D02*
X149161904Y-51052380D01*
X149542857Y-51052380D01*
X149638095Y-51100000D01*
X149685714Y-51147619D01*
X149733333Y-51242857D01*
X149733333Y-51385714D01*
X149685714Y-51480952D01*
X149638095Y-51528571D01*
X149542857Y-51576190D01*
X149161904Y-51576190D01*
X150114285Y-51147619D02*
X150161904Y-51100000D01*
X150257142Y-51052380D01*
X150495238Y-51052380D01*
X150590476Y-51100000D01*
X150638095Y-51147619D01*
X150685714Y-51242857D01*
X150685714Y-51338095D01*
X150638095Y-51480952D01*
X150066666Y-52052380D01*
X150685714Y-52052380D01*
G04 #@! TO.C,R1*
X133633333Y-40152380D02*
X133300000Y-39676190D01*
X133061904Y-40152380D02*
X133061904Y-39152380D01*
X133442857Y-39152380D01*
X133538095Y-39200000D01*
X133585714Y-39247619D01*
X133633333Y-39342857D01*
X133633333Y-39485714D01*
X133585714Y-39580952D01*
X133538095Y-39628571D01*
X133442857Y-39676190D01*
X133061904Y-39676190D01*
X134585714Y-40152380D02*
X134014285Y-40152380D01*
X134300000Y-40152380D02*
X134300000Y-39152380D01*
X134204761Y-39295238D01*
X134109523Y-39390476D01*
X134014285Y-39438095D01*
G04 #@! TO.C,C11*
X150707142Y-44592857D02*
X150754761Y-44640476D01*
X150802380Y-44783333D01*
X150802380Y-44878571D01*
X150754761Y-45021428D01*
X150659523Y-45116666D01*
X150564285Y-45164285D01*
X150373809Y-45211904D01*
X150230952Y-45211904D01*
X150040476Y-45164285D01*
X149945238Y-45116666D01*
X149850000Y-45021428D01*
X149802380Y-44878571D01*
X149802380Y-44783333D01*
X149850000Y-44640476D01*
X149897619Y-44592857D01*
X150802380Y-43640476D02*
X150802380Y-44211904D01*
X150802380Y-43926190D02*
X149802380Y-43926190D01*
X149945238Y-44021428D01*
X150040476Y-44116666D01*
X150088095Y-44211904D01*
X150802380Y-42688095D02*
X150802380Y-43259523D01*
X150802380Y-42973809D02*
X149802380Y-42973809D01*
X149945238Y-43069047D01*
X150040476Y-43164285D01*
X150088095Y-43259523D01*
G04 #@! TO.C,C1*
X135527142Y-64866666D02*
X135574761Y-64914285D01*
X135622380Y-65057142D01*
X135622380Y-65152380D01*
X135574761Y-65295238D01*
X135479523Y-65390476D01*
X135384285Y-65438095D01*
X135193809Y-65485714D01*
X135050952Y-65485714D01*
X134860476Y-65438095D01*
X134765238Y-65390476D01*
X134670000Y-65295238D01*
X134622380Y-65152380D01*
X134622380Y-65057142D01*
X134670000Y-64914285D01*
X134717619Y-64866666D01*
X135622380Y-63914285D02*
X135622380Y-64485714D01*
X135622380Y-64200000D02*
X134622380Y-64200000D01*
X134765238Y-64295238D01*
X134860476Y-64390476D01*
X134908095Y-64485714D01*
G04 #@! TO.C,U2*
X147338095Y-63352380D02*
X147338095Y-64161904D01*
X147385714Y-64257142D01*
X147433333Y-64304761D01*
X147528571Y-64352380D01*
X147719047Y-64352380D01*
X147814285Y-64304761D01*
X147861904Y-64257142D01*
X147909523Y-64161904D01*
X147909523Y-63352380D01*
X148338095Y-63447619D02*
X148385714Y-63400000D01*
X148480952Y-63352380D01*
X148719047Y-63352380D01*
X148814285Y-63400000D01*
X148861904Y-63447619D01*
X148909523Y-63542857D01*
X148909523Y-63638095D01*
X148861904Y-63780952D01*
X148290476Y-64352380D01*
X148909523Y-64352380D01*
G04 #@! TO.C,U1*
X154647619Y-53938095D02*
X153838095Y-53938095D01*
X153742857Y-53985714D01*
X153695238Y-54033333D01*
X153647619Y-54128571D01*
X153647619Y-54319047D01*
X153695238Y-54414285D01*
X153742857Y-54461904D01*
X153838095Y-54509523D01*
X154647619Y-54509523D01*
X153647619Y-55509523D02*
X153647619Y-54938095D01*
X153647619Y-55223809D02*
X154647619Y-55223809D01*
X154504761Y-55128571D01*
X154409523Y-55033333D01*
X154361904Y-54938095D01*
G04 #@! TO.C,R4*
X139622380Y-64866666D02*
X139146190Y-65200000D01*
X139622380Y-65438095D02*
X138622380Y-65438095D01*
X138622380Y-65057142D01*
X138670000Y-64961904D01*
X138717619Y-64914285D01*
X138812857Y-64866666D01*
X138955714Y-64866666D01*
X139050952Y-64914285D01*
X139098571Y-64961904D01*
X139146190Y-65057142D01*
X139146190Y-65438095D01*
X138955714Y-64009523D02*
X139622380Y-64009523D01*
X138574761Y-64247619D02*
X139289047Y-64485714D01*
X139289047Y-63866666D01*
G04 #@! TO.C,J1*
X158166666Y-61847380D02*
X158166666Y-62561666D01*
X158119047Y-62704523D01*
X158023809Y-62799761D01*
X157880952Y-62847380D01*
X157785714Y-62847380D01*
X159166666Y-62847380D02*
X158595238Y-62847380D01*
X158880952Y-62847380D02*
X158880952Y-61847380D01*
X158785714Y-61990238D01*
X158690476Y-62085476D01*
X158595238Y-62133095D01*
G04 #@! TO.C,D2*
X152661904Y-48152380D02*
X152661904Y-47152380D01*
X152900000Y-47152380D01*
X153042857Y-47200000D01*
X153138095Y-47295238D01*
X153185714Y-47390476D01*
X153233333Y-47580952D01*
X153233333Y-47723809D01*
X153185714Y-47914285D01*
X153138095Y-48009523D01*
X153042857Y-48104761D01*
X152900000Y-48152380D01*
X152661904Y-48152380D01*
X153614285Y-47247619D02*
X153661904Y-47200000D01*
X153757142Y-47152380D01*
X153995238Y-47152380D01*
X154090476Y-47200000D01*
X154138095Y-47247619D01*
X154185714Y-47342857D01*
X154185714Y-47438095D01*
X154138095Y-47580952D01*
X153566666Y-48152380D01*
X154185714Y-48152380D01*
G04 #@! TO.C,C3*
X138257142Y-41466666D02*
X138304761Y-41514285D01*
X138352380Y-41657142D01*
X138352380Y-41752380D01*
X138304761Y-41895238D01*
X138209523Y-41990476D01*
X138114285Y-42038095D01*
X137923809Y-42085714D01*
X137780952Y-42085714D01*
X137590476Y-42038095D01*
X137495238Y-41990476D01*
X137400000Y-41895238D01*
X137352380Y-41752380D01*
X137352380Y-41657142D01*
X137400000Y-41514285D01*
X137447619Y-41466666D01*
X137352380Y-41133333D02*
X137352380Y-40514285D01*
X137733333Y-40847619D01*
X137733333Y-40704761D01*
X137780952Y-40609523D01*
X137828571Y-40561904D01*
X137923809Y-40514285D01*
X138161904Y-40514285D01*
X138257142Y-40561904D01*
X138304761Y-40609523D01*
X138352380Y-40704761D01*
X138352380Y-40990476D01*
X138304761Y-41085714D01*
X138257142Y-41133333D01*
G04 #@! TO.C,C10*
X145607142Y-38442857D02*
X145654761Y-38490476D01*
X145702380Y-38633333D01*
X145702380Y-38728571D01*
X145654761Y-38871428D01*
X145559523Y-38966666D01*
X145464285Y-39014285D01*
X145273809Y-39061904D01*
X145130952Y-39061904D01*
X144940476Y-39014285D01*
X144845238Y-38966666D01*
X144750000Y-38871428D01*
X144702380Y-38728571D01*
X144702380Y-38633333D01*
X144750000Y-38490476D01*
X144797619Y-38442857D01*
X145702380Y-37490476D02*
X145702380Y-38061904D01*
X145702380Y-37776190D02*
X144702380Y-37776190D01*
X144845238Y-37871428D01*
X144940476Y-37966666D01*
X144988095Y-38061904D01*
X144702380Y-36871428D02*
X144702380Y-36776190D01*
X144750000Y-36680952D01*
X144797619Y-36633333D01*
X144892857Y-36585714D01*
X145083333Y-36538095D01*
X145321428Y-36538095D01*
X145511904Y-36585714D01*
X145607142Y-36633333D01*
X145654761Y-36680952D01*
X145702380Y-36776190D01*
X145702380Y-36871428D01*
X145654761Y-36966666D01*
X145607142Y-37014285D01*
X145511904Y-37061904D01*
X145321428Y-37109523D01*
X145083333Y-37109523D01*
X144892857Y-37061904D01*
X144797619Y-37014285D01*
X144750000Y-36966666D01*
X144702380Y-36871428D01*
G04 #@! TO.C,C9*
X146307142Y-44116666D02*
X146354761Y-44164285D01*
X146402380Y-44307142D01*
X146402380Y-44402380D01*
X146354761Y-44545238D01*
X146259523Y-44640476D01*
X146164285Y-44688095D01*
X145973809Y-44735714D01*
X145830952Y-44735714D01*
X145640476Y-44688095D01*
X145545238Y-44640476D01*
X145450000Y-44545238D01*
X145402380Y-44402380D01*
X145402380Y-44307142D01*
X145450000Y-44164285D01*
X145497619Y-44116666D01*
X146402380Y-43640476D02*
X146402380Y-43450000D01*
X146354761Y-43354761D01*
X146307142Y-43307142D01*
X146164285Y-43211904D01*
X145973809Y-43164285D01*
X145592857Y-43164285D01*
X145497619Y-43211904D01*
X145450000Y-43259523D01*
X145402380Y-43354761D01*
X145402380Y-43545238D01*
X145450000Y-43640476D01*
X145497619Y-43688095D01*
X145592857Y-43735714D01*
X145830952Y-43735714D01*
X145926190Y-43688095D01*
X145973809Y-43640476D01*
X146021428Y-43545238D01*
X146021428Y-43354761D01*
X145973809Y-43259523D01*
X145926190Y-43211904D01*
X145830952Y-43164285D01*
G04 #@! TO.C,C8*
X144057142Y-41016666D02*
X144104761Y-41064285D01*
X144152380Y-41207142D01*
X144152380Y-41302380D01*
X144104761Y-41445238D01*
X144009523Y-41540476D01*
X143914285Y-41588095D01*
X143723809Y-41635714D01*
X143580952Y-41635714D01*
X143390476Y-41588095D01*
X143295238Y-41540476D01*
X143200000Y-41445238D01*
X143152380Y-41302380D01*
X143152380Y-41207142D01*
X143200000Y-41064285D01*
X143247619Y-41016666D01*
X143580952Y-40445238D02*
X143533333Y-40540476D01*
X143485714Y-40588095D01*
X143390476Y-40635714D01*
X143342857Y-40635714D01*
X143247619Y-40588095D01*
X143200000Y-40540476D01*
X143152380Y-40445238D01*
X143152380Y-40254761D01*
X143200000Y-40159523D01*
X143247619Y-40111904D01*
X143342857Y-40064285D01*
X143390476Y-40064285D01*
X143485714Y-40111904D01*
X143533333Y-40159523D01*
X143580952Y-40254761D01*
X143580952Y-40445238D01*
X143628571Y-40540476D01*
X143676190Y-40588095D01*
X143771428Y-40635714D01*
X143961904Y-40635714D01*
X144057142Y-40588095D01*
X144104761Y-40540476D01*
X144152380Y-40445238D01*
X144152380Y-40254761D01*
X144104761Y-40159523D01*
X144057142Y-40111904D01*
X143961904Y-40064285D01*
X143771428Y-40064285D01*
X143676190Y-40111904D01*
X143628571Y-40159523D01*
X143580952Y-40254761D01*
G04 #@! TO.C,C7*
X145127142Y-64866666D02*
X145174761Y-64914285D01*
X145222380Y-65057142D01*
X145222380Y-65152380D01*
X145174761Y-65295238D01*
X145079523Y-65390476D01*
X144984285Y-65438095D01*
X144793809Y-65485714D01*
X144650952Y-65485714D01*
X144460476Y-65438095D01*
X144365238Y-65390476D01*
X144270000Y-65295238D01*
X144222380Y-65152380D01*
X144222380Y-65057142D01*
X144270000Y-64914285D01*
X144317619Y-64866666D01*
X144222380Y-64533333D02*
X144222380Y-63866666D01*
X145222380Y-64295238D01*
G04 #@! TO.C,C6*
X151557142Y-60366666D02*
X151604761Y-60414285D01*
X151652380Y-60557142D01*
X151652380Y-60652380D01*
X151604761Y-60795238D01*
X151509523Y-60890476D01*
X151414285Y-60938095D01*
X151223809Y-60985714D01*
X151080952Y-60985714D01*
X150890476Y-60938095D01*
X150795238Y-60890476D01*
X150700000Y-60795238D01*
X150652380Y-60652380D01*
X150652380Y-60557142D01*
X150700000Y-60414285D01*
X150747619Y-60366666D01*
X150652380Y-59509523D02*
X150652380Y-59700000D01*
X150700000Y-59795238D01*
X150747619Y-59842857D01*
X150890476Y-59938095D01*
X151080952Y-59985714D01*
X151461904Y-59985714D01*
X151557142Y-59938095D01*
X151604761Y-59890476D01*
X151652380Y-59795238D01*
X151652380Y-59604761D01*
X151604761Y-59509523D01*
X151557142Y-59461904D01*
X151461904Y-59414285D01*
X151223809Y-59414285D01*
X151128571Y-59461904D01*
X151080952Y-59509523D01*
X151033333Y-59604761D01*
X151033333Y-59795238D01*
X151080952Y-59890476D01*
X151128571Y-59938095D01*
X151223809Y-59985714D01*
G04 #@! TO.C,C5*
X151557142Y-55166666D02*
X151604761Y-55214285D01*
X151652380Y-55357142D01*
X151652380Y-55452380D01*
X151604761Y-55595238D01*
X151509523Y-55690476D01*
X151414285Y-55738095D01*
X151223809Y-55785714D01*
X151080952Y-55785714D01*
X150890476Y-55738095D01*
X150795238Y-55690476D01*
X150700000Y-55595238D01*
X150652380Y-55452380D01*
X150652380Y-55357142D01*
X150700000Y-55214285D01*
X150747619Y-55166666D01*
X150652380Y-54261904D02*
X150652380Y-54738095D01*
X151128571Y-54785714D01*
X151080952Y-54738095D01*
X151033333Y-54642857D01*
X151033333Y-54404761D01*
X151080952Y-54309523D01*
X151128571Y-54261904D01*
X151223809Y-54214285D01*
X151461904Y-54214285D01*
X151557142Y-54261904D01*
X151604761Y-54309523D01*
X151652380Y-54404761D01*
X151652380Y-54642857D01*
X151604761Y-54738095D01*
X151557142Y-54785714D01*
G04 #@! TO.C,C4*
X140533333Y-38857142D02*
X140485714Y-38904761D01*
X140342857Y-38952380D01*
X140247619Y-38952380D01*
X140104761Y-38904761D01*
X140009523Y-38809523D01*
X139961904Y-38714285D01*
X139914285Y-38523809D01*
X139914285Y-38380952D01*
X139961904Y-38190476D01*
X140009523Y-38095238D01*
X140104761Y-38000000D01*
X140247619Y-37952380D01*
X140342857Y-37952380D01*
X140485714Y-38000000D01*
X140533333Y-38047619D01*
X141390476Y-38285714D02*
X141390476Y-38952380D01*
X141152380Y-37904761D02*
X140914285Y-38619047D01*
X141533333Y-38619047D01*
G04 #@! TO.C,C2*
X152733333Y-63657142D02*
X152685714Y-63704761D01*
X152542857Y-63752380D01*
X152447619Y-63752380D01*
X152304761Y-63704761D01*
X152209523Y-63609523D01*
X152161904Y-63514285D01*
X152114285Y-63323809D01*
X152114285Y-63180952D01*
X152161904Y-62990476D01*
X152209523Y-62895238D01*
X152304761Y-62800000D01*
X152447619Y-62752380D01*
X152542857Y-62752380D01*
X152685714Y-62800000D01*
X152733333Y-62847619D01*
X153114285Y-62847619D02*
X153161904Y-62800000D01*
X153257142Y-62752380D01*
X153495238Y-62752380D01*
X153590476Y-62800000D01*
X153638095Y-62847619D01*
X153685714Y-62942857D01*
X153685714Y-63038095D01*
X153638095Y-63180952D01*
X153066666Y-63752380D01*
X153685714Y-63752380D01*
G04 #@! TO.C,J3*
X129952380Y-53833333D02*
X130666666Y-53833333D01*
X130809523Y-53880952D01*
X130904761Y-53976190D01*
X130952380Y-54119047D01*
X130952380Y-54214285D01*
X129952380Y-53452380D02*
X129952380Y-52833333D01*
X130333333Y-53166666D01*
X130333333Y-53023809D01*
X130380952Y-52928571D01*
X130428571Y-52880952D01*
X130523809Y-52833333D01*
X130761904Y-52833333D01*
X130857142Y-52880952D01*
X130904761Y-52928571D01*
X130952380Y-53023809D01*
X130952380Y-53309523D01*
X130904761Y-53404761D01*
X130857142Y-53452380D01*
G04 #@! TD*
%LPC*%
D13*
G04 #@! TO.C,SW1*
X154600000Y-67400000D03*
D14*
X157100000Y-68400000D03*
X157100000Y-73400000D03*
D13*
X154600000Y-74400000D03*
G04 #@! TD*
D15*
G04 #@! TO.C,D1*
X148850000Y-40650000D03*
X146850000Y-41600000D03*
X146850000Y-39700000D03*
G04 #@! TD*
D16*
G04 #@! TO.C,J2*
X156240000Y-39720000D03*
X156240000Y-42260000D03*
X156240000Y-44800000D03*
X153700000Y-39720000D03*
X153700000Y-42260000D03*
G36*
G01*
X152850000Y-45400000D02*
X152850000Y-44200000D01*
G75*
G02*
X153100000Y-43950000I250000J0D01*
G01*
X154300000Y-43950000D01*
G75*
G02*
X154550000Y-44200000I0J-250000D01*
G01*
X154550000Y-45400000D01*
G75*
G02*
X154300000Y-45650000I-250000J0D01*
G01*
X153100000Y-45650000D01*
G75*
G02*
X152850000Y-45400000I0J250000D01*
G01*
G37*
G04 #@! TD*
D17*
G04 #@! TO.C,Y1*
X139700000Y-42850000D03*
X141900000Y-42850000D03*
X141900000Y-44550000D03*
X139700000Y-44550000D03*
G04 #@! TD*
G04 #@! TO.C,R6*
G36*
G01*
X131825000Y-41575000D02*
X131825000Y-41025000D01*
G75*
G02*
X132025000Y-40825000I200000J0D01*
G01*
X132425000Y-40825000D01*
G75*
G02*
X132625000Y-41025000I0J-200000D01*
G01*
X132625000Y-41575000D01*
G75*
G02*
X132425000Y-41775000I-200000J0D01*
G01*
X132025000Y-41775000D01*
G75*
G02*
X131825000Y-41575000I0J200000D01*
G01*
G37*
G36*
G01*
X130175000Y-41575000D02*
X130175000Y-41025000D01*
G75*
G02*
X130375000Y-40825000I200000J0D01*
G01*
X130775000Y-40825000D01*
G75*
G02*
X130975000Y-41025000I0J-200000D01*
G01*
X130975000Y-41575000D01*
G75*
G02*
X130775000Y-41775000I-200000J0D01*
G01*
X130375000Y-41775000D01*
G75*
G02*
X130175000Y-41575000I0J200000D01*
G01*
G37*
G04 #@! TD*
G04 #@! TO.C,R5*
G36*
G01*
X150375000Y-48925000D02*
X150375000Y-49475000D01*
G75*
G02*
X150175000Y-49675000I-200000J0D01*
G01*
X149775000Y-49675000D01*
G75*
G02*
X149575000Y-49475000I0J200000D01*
G01*
X149575000Y-48925000D01*
G75*
G02*
X149775000Y-48725000I200000J0D01*
G01*
X150175000Y-48725000D01*
G75*
G02*
X150375000Y-48925000I0J-200000D01*
G01*
G37*
G36*
G01*
X152025000Y-48925000D02*
X152025000Y-49475000D01*
G75*
G02*
X151825000Y-49675000I-200000J0D01*
G01*
X151425000Y-49675000D01*
G75*
G02*
X151225000Y-49475000I0J200000D01*
G01*
X151225000Y-48925000D01*
G75*
G02*
X151425000Y-48725000I200000J0D01*
G01*
X151825000Y-48725000D01*
G75*
G02*
X152025000Y-48925000I0J-200000D01*
G01*
G37*
G04 #@! TD*
G04 #@! TO.C,R3*
G36*
G01*
X150240000Y-58285000D02*
X150240000Y-57915000D01*
G75*
G02*
X150375000Y-57780000I135000J0D01*
G01*
X150645000Y-57780000D01*
G75*
G02*
X150780000Y-57915000I0J-135000D01*
G01*
X150780000Y-58285000D01*
G75*
G02*
X150645000Y-58420000I-135000J0D01*
G01*
X150375000Y-58420000D01*
G75*
G02*
X150240000Y-58285000I0J135000D01*
G01*
G37*
G36*
G01*
X149220000Y-58285000D02*
X149220000Y-57915000D01*
G75*
G02*
X149355000Y-57780000I135000J0D01*
G01*
X149625000Y-57780000D01*
G75*
G02*
X149760000Y-57915000I0J-135000D01*
G01*
X149760000Y-58285000D01*
G75*
G02*
X149625000Y-58420000I-135000J0D01*
G01*
X149355000Y-58420000D01*
G75*
G02*
X149220000Y-58285000I0J135000D01*
G01*
G37*
G04 #@! TD*
G04 #@! TO.C,R2*
G36*
G01*
X150240000Y-57285000D02*
X150240000Y-56915000D01*
G75*
G02*
X150375000Y-56780000I135000J0D01*
G01*
X150645000Y-56780000D01*
G75*
G02*
X150780000Y-56915000I0J-135000D01*
G01*
X150780000Y-57285000D01*
G75*
G02*
X150645000Y-57420000I-135000J0D01*
G01*
X150375000Y-57420000D01*
G75*
G02*
X150240000Y-57285000I0J135000D01*
G01*
G37*
G36*
G01*
X149220000Y-57285000D02*
X149220000Y-56915000D01*
G75*
G02*
X149355000Y-56780000I135000J0D01*
G01*
X149625000Y-56780000D01*
G75*
G02*
X149760000Y-56915000I0J-135000D01*
G01*
X149760000Y-57285000D01*
G75*
G02*
X149625000Y-57420000I-135000J0D01*
G01*
X149355000Y-57420000D01*
G75*
G02*
X149220000Y-57285000I0J135000D01*
G01*
G37*
G04 #@! TD*
G04 #@! TO.C,R1*
G36*
G01*
X131825000Y-39975000D02*
X131825000Y-39425000D01*
G75*
G02*
X132025000Y-39225000I200000J0D01*
G01*
X132425000Y-39225000D01*
G75*
G02*
X132625000Y-39425000I0J-200000D01*
G01*
X132625000Y-39975000D01*
G75*
G02*
X132425000Y-40175000I-200000J0D01*
G01*
X132025000Y-40175000D01*
G75*
G02*
X131825000Y-39975000I0J200000D01*
G01*
G37*
G36*
G01*
X130175000Y-39975000D02*
X130175000Y-39425000D01*
G75*
G02*
X130375000Y-39225000I200000J0D01*
G01*
X130775000Y-39225000D01*
G75*
G02*
X130975000Y-39425000I0J-200000D01*
G01*
X130975000Y-39975000D01*
G75*
G02*
X130775000Y-40175000I-200000J0D01*
G01*
X130375000Y-40175000D01*
G75*
G02*
X130175000Y-39975000I0J200000D01*
G01*
G37*
G04 #@! TD*
G04 #@! TO.C,C11*
G36*
G01*
X148600000Y-44275000D02*
X149100000Y-44275000D01*
G75*
G02*
X149325000Y-44500000I0J-225000D01*
G01*
X149325000Y-44950000D01*
G75*
G02*
X149100000Y-45175000I-225000J0D01*
G01*
X148600000Y-45175000D01*
G75*
G02*
X148375000Y-44950000I0J225000D01*
G01*
X148375000Y-44500000D01*
G75*
G02*
X148600000Y-44275000I225000J0D01*
G01*
G37*
G36*
G01*
X148600000Y-42725000D02*
X149100000Y-42725000D01*
G75*
G02*
X149325000Y-42950000I0J-225000D01*
G01*
X149325000Y-43400000D01*
G75*
G02*
X149100000Y-43625000I-225000J0D01*
G01*
X148600000Y-43625000D01*
G75*
G02*
X148375000Y-43400000I0J225000D01*
G01*
X148375000Y-42950000D01*
G75*
G02*
X148600000Y-42725000I225000J0D01*
G01*
G37*
G04 #@! TD*
G04 #@! TO.C,C1*
G36*
G01*
X136850000Y-64375000D02*
X136350000Y-64375000D01*
G75*
G02*
X136125000Y-64150000I0J225000D01*
G01*
X136125000Y-63700000D01*
G75*
G02*
X136350000Y-63475000I225000J0D01*
G01*
X136850000Y-63475000D01*
G75*
G02*
X137075000Y-63700000I0J-225000D01*
G01*
X137075000Y-64150000D01*
G75*
G02*
X136850000Y-64375000I-225000J0D01*
G01*
G37*
G36*
G01*
X136850000Y-65925000D02*
X136350000Y-65925000D01*
G75*
G02*
X136125000Y-65700000I0J225000D01*
G01*
X136125000Y-65250000D01*
G75*
G02*
X136350000Y-65025000I225000J0D01*
G01*
X136850000Y-65025000D01*
G75*
G02*
X137075000Y-65250000I0J-225000D01*
G01*
X137075000Y-65700000D01*
G75*
G02*
X136850000Y-65925000I-225000J0D01*
G01*
G37*
G04 #@! TD*
D18*
G04 #@! TO.C,U2*
X147900000Y-60400000D03*
X147900000Y-59600000D03*
X147900000Y-58800000D03*
X147900000Y-58000000D03*
X147900000Y-57200000D03*
X147900000Y-56400000D03*
X147900000Y-55600000D03*
X147900000Y-54800000D03*
X147900000Y-54000000D03*
X147900000Y-53200000D03*
X147900000Y-52400000D03*
X147900000Y-51600000D03*
X147900000Y-50800000D03*
X147900000Y-50000000D03*
X147900000Y-49200000D03*
X147900000Y-48400000D03*
D19*
X146200000Y-46700000D03*
X145400000Y-46700000D03*
X144600000Y-46700000D03*
X143800000Y-46700000D03*
X143000000Y-46700000D03*
X142200000Y-46700000D03*
X141400000Y-46700000D03*
X140600000Y-46700000D03*
X139800000Y-46700000D03*
X139000000Y-46700000D03*
X138200000Y-46700000D03*
X137400000Y-46700000D03*
X136600000Y-46700000D03*
X135800000Y-46700000D03*
X135000000Y-46700000D03*
X134200000Y-46700000D03*
D18*
X132500000Y-48400000D03*
X132500000Y-49200000D03*
X132500000Y-50000000D03*
X132500000Y-50800000D03*
X132500000Y-51600000D03*
X132500000Y-52400000D03*
X132500000Y-53200000D03*
X132500000Y-54000000D03*
X132500000Y-54800000D03*
X132500000Y-55600000D03*
X132500000Y-56400000D03*
X132500000Y-57200000D03*
X132500000Y-58000000D03*
X132500000Y-58800000D03*
X132500000Y-59600000D03*
X132500000Y-60400000D03*
D19*
X134200000Y-62100000D03*
X135000000Y-62100000D03*
X135800000Y-62100000D03*
X136600000Y-62100000D03*
X137400000Y-62100000D03*
X138200000Y-62100000D03*
X139000000Y-62100000D03*
X139800000Y-62100000D03*
X140600000Y-62100000D03*
X141400000Y-62100000D03*
X142200000Y-62100000D03*
X143000000Y-62100000D03*
X143800000Y-62100000D03*
X144600000Y-62100000D03*
X145400000Y-62100000D03*
X146200000Y-62100000D03*
G04 #@! TD*
D20*
G04 #@! TO.C,U1*
X153850000Y-56500000D03*
X152900000Y-56500000D03*
X151950000Y-56500000D03*
X151950000Y-58700000D03*
X153850000Y-58700000D03*
X152900000Y-58700000D03*
G04 #@! TD*
G04 #@! TO.C,R4*
G36*
G01*
X140875000Y-64275000D02*
X140325000Y-64275000D01*
G75*
G02*
X140125000Y-64075000I0J200000D01*
G01*
X140125000Y-63675000D01*
G75*
G02*
X140325000Y-63475000I200000J0D01*
G01*
X140875000Y-63475000D01*
G75*
G02*
X141075000Y-63675000I0J-200000D01*
G01*
X141075000Y-64075000D01*
G75*
G02*
X140875000Y-64275000I-200000J0D01*
G01*
G37*
G36*
G01*
X140875000Y-65925000D02*
X140325000Y-65925000D01*
G75*
G02*
X140125000Y-65725000I0J200000D01*
G01*
X140125000Y-65325000D01*
G75*
G02*
X140325000Y-65125000I200000J0D01*
G01*
X140875000Y-65125000D01*
G75*
G02*
X141075000Y-65325000I0J-200000D01*
G01*
X141075000Y-65725000D01*
G75*
G02*
X140875000Y-65925000I-200000J0D01*
G01*
G37*
G04 #@! TD*
D21*
G04 #@! TO.C,J1*
X158537500Y-56275000D03*
D22*
X155837500Y-59775000D03*
D23*
X155837500Y-57925000D03*
X155837500Y-58575000D03*
X155837500Y-55975000D03*
X155837500Y-56625000D03*
X155837500Y-57275000D03*
D22*
X155837500Y-54775000D03*
D21*
X158537500Y-58275000D03*
D24*
X158537500Y-60775000D03*
X158537500Y-53775000D03*
D25*
X158537500Y-54375000D03*
X158537500Y-60175000D03*
G04 #@! TD*
G04 #@! TO.C,D2*
G36*
G01*
X151000000Y-47912500D02*
X151000000Y-47487500D01*
G75*
G02*
X151212500Y-47275000I212500J0D01*
G01*
X152012500Y-47275000D01*
G75*
G02*
X152225000Y-47487500I0J-212500D01*
G01*
X152225000Y-47912500D01*
G75*
G02*
X152012500Y-48125000I-212500J0D01*
G01*
X151212500Y-48125000D01*
G75*
G02*
X151000000Y-47912500I0J212500D01*
G01*
G37*
G36*
G01*
X149375000Y-47912500D02*
X149375000Y-47487500D01*
G75*
G02*
X149587500Y-47275000I212500J0D01*
G01*
X150387500Y-47275000D01*
G75*
G02*
X150600000Y-47487500I0J-212500D01*
G01*
X150600000Y-47912500D01*
G75*
G02*
X150387500Y-48125000I-212500J0D01*
G01*
X149587500Y-48125000D01*
G75*
G02*
X149375000Y-47912500I0J212500D01*
G01*
G37*
G04 #@! TD*
G04 #@! TO.C,C3*
G36*
G01*
X138150000Y-43375000D02*
X137650000Y-43375000D01*
G75*
G02*
X137425000Y-43150000I0J225000D01*
G01*
X137425000Y-42700000D01*
G75*
G02*
X137650000Y-42475000I225000J0D01*
G01*
X138150000Y-42475000D01*
G75*
G02*
X138375000Y-42700000I0J-225000D01*
G01*
X138375000Y-43150000D01*
G75*
G02*
X138150000Y-43375000I-225000J0D01*
G01*
G37*
G36*
G01*
X138150000Y-44925000D02*
X137650000Y-44925000D01*
G75*
G02*
X137425000Y-44700000I0J225000D01*
G01*
X137425000Y-44250000D01*
G75*
G02*
X137650000Y-44025000I225000J0D01*
G01*
X138150000Y-44025000D01*
G75*
G02*
X138375000Y-44250000I0J-225000D01*
G01*
X138375000Y-44700000D01*
G75*
G02*
X138150000Y-44925000I-225000J0D01*
G01*
G37*
G04 #@! TD*
G04 #@! TO.C,C10*
G36*
G01*
X145500000Y-40525000D02*
X145000000Y-40525000D01*
G75*
G02*
X144775000Y-40300000I0J225000D01*
G01*
X144775000Y-39850000D01*
G75*
G02*
X145000000Y-39625000I225000J0D01*
G01*
X145500000Y-39625000D01*
G75*
G02*
X145725000Y-39850000I0J-225000D01*
G01*
X145725000Y-40300000D01*
G75*
G02*
X145500000Y-40525000I-225000J0D01*
G01*
G37*
G36*
G01*
X145500000Y-42075000D02*
X145000000Y-42075000D01*
G75*
G02*
X144775000Y-41850000I0J225000D01*
G01*
X144775000Y-41400000D01*
G75*
G02*
X145000000Y-41175000I225000J0D01*
G01*
X145500000Y-41175000D01*
G75*
G02*
X145725000Y-41400000I0J-225000D01*
G01*
X145725000Y-41850000D01*
G75*
G02*
X145500000Y-42075000I-225000J0D01*
G01*
G37*
G04 #@! TD*
G04 #@! TO.C,C9*
G36*
G01*
X147100000Y-44275000D02*
X147600000Y-44275000D01*
G75*
G02*
X147825000Y-44500000I0J-225000D01*
G01*
X147825000Y-44950000D01*
G75*
G02*
X147600000Y-45175000I-225000J0D01*
G01*
X147100000Y-45175000D01*
G75*
G02*
X146875000Y-44950000I0J225000D01*
G01*
X146875000Y-44500000D01*
G75*
G02*
X147100000Y-44275000I225000J0D01*
G01*
G37*
G36*
G01*
X147100000Y-42725000D02*
X147600000Y-42725000D01*
G75*
G02*
X147825000Y-42950000I0J-225000D01*
G01*
X147825000Y-43400000D01*
G75*
G02*
X147600000Y-43625000I-225000J0D01*
G01*
X147100000Y-43625000D01*
G75*
G02*
X146875000Y-43400000I0J225000D01*
G01*
X146875000Y-42950000D01*
G75*
G02*
X147100000Y-42725000I225000J0D01*
G01*
G37*
G04 #@! TD*
G04 #@! TO.C,C8*
G36*
G01*
X143450000Y-44225000D02*
X143950000Y-44225000D01*
G75*
G02*
X144175000Y-44450000I0J-225000D01*
G01*
X144175000Y-44900000D01*
G75*
G02*
X143950000Y-45125000I-225000J0D01*
G01*
X143450000Y-45125000D01*
G75*
G02*
X143225000Y-44900000I0J225000D01*
G01*
X143225000Y-44450000D01*
G75*
G02*
X143450000Y-44225000I225000J0D01*
G01*
G37*
G36*
G01*
X143450000Y-42675000D02*
X143950000Y-42675000D01*
G75*
G02*
X144175000Y-42900000I0J-225000D01*
G01*
X144175000Y-43350000D01*
G75*
G02*
X143950000Y-43575000I-225000J0D01*
G01*
X143450000Y-43575000D01*
G75*
G02*
X143225000Y-43350000I0J225000D01*
G01*
X143225000Y-42900000D01*
G75*
G02*
X143450000Y-42675000I225000J0D01*
G01*
G37*
G04 #@! TD*
G04 #@! TO.C,C7*
G36*
G01*
X146450000Y-64375000D02*
X145950000Y-64375000D01*
G75*
G02*
X145725000Y-64150000I0J225000D01*
G01*
X145725000Y-63700000D01*
G75*
G02*
X145950000Y-63475000I225000J0D01*
G01*
X146450000Y-63475000D01*
G75*
G02*
X146675000Y-63700000I0J-225000D01*
G01*
X146675000Y-64150000D01*
G75*
G02*
X146450000Y-64375000I-225000J0D01*
G01*
G37*
G36*
G01*
X146450000Y-65925000D02*
X145950000Y-65925000D01*
G75*
G02*
X145725000Y-65700000I0J225000D01*
G01*
X145725000Y-65250000D01*
G75*
G02*
X145950000Y-65025000I225000J0D01*
G01*
X146450000Y-65025000D01*
G75*
G02*
X146675000Y-65250000I0J-225000D01*
G01*
X146675000Y-65700000D01*
G75*
G02*
X146450000Y-65925000I-225000J0D01*
G01*
G37*
G04 #@! TD*
G04 #@! TO.C,C6*
G36*
G01*
X150050000Y-59875000D02*
X149550000Y-59875000D01*
G75*
G02*
X149325000Y-59650000I0J225000D01*
G01*
X149325000Y-59200000D01*
G75*
G02*
X149550000Y-58975000I225000J0D01*
G01*
X150050000Y-58975000D01*
G75*
G02*
X150275000Y-59200000I0J-225000D01*
G01*
X150275000Y-59650000D01*
G75*
G02*
X150050000Y-59875000I-225000J0D01*
G01*
G37*
G36*
G01*
X150050000Y-61425000D02*
X149550000Y-61425000D01*
G75*
G02*
X149325000Y-61200000I0J225000D01*
G01*
X149325000Y-60750000D01*
G75*
G02*
X149550000Y-60525000I225000J0D01*
G01*
X150050000Y-60525000D01*
G75*
G02*
X150275000Y-60750000I0J-225000D01*
G01*
X150275000Y-61200000D01*
G75*
G02*
X150050000Y-61425000I-225000J0D01*
G01*
G37*
G04 #@! TD*
G04 #@! TO.C,C5*
G36*
G01*
X150050000Y-54675000D02*
X149550000Y-54675000D01*
G75*
G02*
X149325000Y-54450000I0J225000D01*
G01*
X149325000Y-54000000D01*
G75*
G02*
X149550000Y-53775000I225000J0D01*
G01*
X150050000Y-53775000D01*
G75*
G02*
X150275000Y-54000000I0J-225000D01*
G01*
X150275000Y-54450000D01*
G75*
G02*
X150050000Y-54675000I-225000J0D01*
G01*
G37*
G36*
G01*
X150050000Y-56225000D02*
X149550000Y-56225000D01*
G75*
G02*
X149325000Y-56000000I0J225000D01*
G01*
X149325000Y-55550000D01*
G75*
G02*
X149550000Y-55325000I225000J0D01*
G01*
X150050000Y-55325000D01*
G75*
G02*
X150275000Y-55550000I0J-225000D01*
G01*
X150275000Y-56000000D01*
G75*
G02*
X150050000Y-56225000I-225000J0D01*
G01*
G37*
G04 #@! TD*
G04 #@! TO.C,C4*
G36*
G01*
X140475000Y-40950000D02*
X140475000Y-41450000D01*
G75*
G02*
X140250000Y-41675000I-225000J0D01*
G01*
X139800000Y-41675000D01*
G75*
G02*
X139575000Y-41450000I0J225000D01*
G01*
X139575000Y-40950000D01*
G75*
G02*
X139800000Y-40725000I225000J0D01*
G01*
X140250000Y-40725000D01*
G75*
G02*
X140475000Y-40950000I0J-225000D01*
G01*
G37*
G36*
G01*
X142025000Y-40950000D02*
X142025000Y-41450000D01*
G75*
G02*
X141800000Y-41675000I-225000J0D01*
G01*
X141350000Y-41675000D01*
G75*
G02*
X141125000Y-41450000I0J225000D01*
G01*
X141125000Y-40950000D01*
G75*
G02*
X141350000Y-40725000I225000J0D01*
G01*
X141800000Y-40725000D01*
G75*
G02*
X142025000Y-40950000I0J-225000D01*
G01*
G37*
G04 #@! TD*
G04 #@! TO.C,C2*
G36*
G01*
X153150000Y-60775000D02*
X152650000Y-60775000D01*
G75*
G02*
X152425000Y-60550000I0J225000D01*
G01*
X152425000Y-60100000D01*
G75*
G02*
X152650000Y-59875000I225000J0D01*
G01*
X153150000Y-59875000D01*
G75*
G02*
X153375000Y-60100000I0J-225000D01*
G01*
X153375000Y-60550000D01*
G75*
G02*
X153150000Y-60775000I-225000J0D01*
G01*
G37*
G36*
G01*
X153150000Y-62325000D02*
X152650000Y-62325000D01*
G75*
G02*
X152425000Y-62100000I0J225000D01*
G01*
X152425000Y-61650000D01*
G75*
G02*
X152650000Y-61425000I225000J0D01*
G01*
X153150000Y-61425000D01*
G75*
G02*
X153375000Y-61650000I0J-225000D01*
G01*
X153375000Y-62100000D01*
G75*
G02*
X153150000Y-62325000I-225000J0D01*
G01*
G37*
G04 #@! TD*
D26*
G04 #@! TO.C,J3*
X128300000Y-39000000D03*
X128300000Y-40000000D03*
X128300000Y-41000000D03*
X128300000Y-42000000D03*
X128300000Y-43000000D03*
X128300000Y-44000000D03*
X128300000Y-45000000D03*
X128300000Y-46000000D03*
X128300000Y-47000000D03*
X128300000Y-48000000D03*
X128300000Y-49000000D03*
X128300000Y-50000000D03*
X128300000Y-51000000D03*
X128300000Y-52000000D03*
X128300000Y-53000000D03*
X128300000Y-54000000D03*
X128300000Y-55000000D03*
X128300000Y-56000000D03*
X128300000Y-57000000D03*
X128300000Y-58000000D03*
X128300000Y-59000000D03*
X128300000Y-60000000D03*
X128300000Y-61000000D03*
X128300000Y-62000000D03*
X128300000Y-63000000D03*
X128300000Y-64000000D03*
X128300000Y-65000000D03*
X128300000Y-66000000D03*
X128300000Y-67000000D03*
X128300000Y-68000000D03*
D27*
X125500000Y-36010000D03*
X125500000Y-70990000D03*
G04 #@! TD*
D28*
G04 #@! TO.C,H1*
X131000000Y-35500000D03*
G04 #@! TD*
G04 #@! TO.C,H2*
X133500000Y-69000000D03*
G04 #@! TD*
D29*
G04 #@! TO.C,H3*
X129500000Y-73500000D03*
G04 #@! TD*
M02*
